<svg width="186" height="186" viewBox="0 0 186 186" fill="none" xmlns="http://www.w3.org/2000/svg">
<path d="M90.7325 178.234L92.7357 178.284L92.8211 174.834L93.9516 174.862L93.7406 183.391L90.9173 183.321C89.9566 183.297 89.224 183.06 88.7193 182.61C88.2108 182.16 87.9668 181.517 87.9875 180.681C88.0006 180.15 88.1566 179.691 88.4553 179.303C88.7501 178.916 89.1558 178.631 89.6721 178.449L87.7584 174.779L87.7601 174.709L88.9668 174.739L90.7325 178.234ZM92.713 179.204L90.985 179.161C90.4266 179.147 89.9798 179.281 89.6446 179.561C89.3055 179.842 89.13 180.225 89.118 180.709C89.105 181.236 89.2531 181.644 89.5625 181.933C89.8679 182.222 90.3174 182.376 90.9109 182.394L92.633 182.437L92.713 179.204Z" fill="black"/>
<path d="M78.759 173.452C79.6052 173.602 80.2447 174.001 80.6775 174.649C81.1096 175.3 81.2433 176.092 81.0785 177.023L81.0438 177.219C80.9342 177.838 80.7192 178.369 80.3988 178.812C80.0739 179.259 79.6757 179.581 79.2043 179.779C78.7283 179.98 78.2422 180.037 77.746 179.949C76.9344 179.806 76.3509 179.427 75.9955 178.813C75.6401 178.198 75.5505 177.393 75.7268 176.397L75.8054 175.952L80.0346 176.701C80.1282 176.083 80.0375 175.553 79.7625 175.112C79.483 174.673 79.0779 174.407 78.5471 174.313C78.1701 174.247 77.8373 174.267 77.5485 174.375C77.2597 174.482 76.9947 174.646 76.7536 174.865L76.1915 174.242C76.8569 173.53 77.7127 173.267 78.759 173.452ZM77.9012 179.072C78.332 179.149 78.7215 179.055 79.0696 178.791C79.4171 178.531 79.6755 178.125 79.8448 177.572L76.7176 177.018L76.7033 177.099C76.6381 177.647 76.7101 178.092 76.9192 178.435C77.1277 178.781 77.455 178.993 77.9012 179.072Z" fill="black"/>
<path d="M66.0618 170.278C66.0819 170.416 66.0601 170.644 65.9966 170.96C66.6394 170.622 67.2927 170.562 67.9566 170.782C68.5499 170.978 68.9824 171.306 69.2539 171.766C69.5205 172.229 69.5685 172.718 69.3979 173.234C69.1905 173.86 68.7924 174.268 68.2036 174.455C67.6098 174.646 66.8809 174.598 66.0169 174.312L65.0156 173.981L64.8591 174.453C64.7401 174.813 64.7531 175.134 64.8983 175.417C65.0422 175.703 65.3237 175.916 65.7427 176.054C66.1099 176.176 66.4483 176.185 66.7582 176.082C67.068 175.979 67.2665 175.795 67.3536 175.532L68.3883 175.874C68.2889 176.175 68.0875 176.429 67.784 176.637C67.4757 176.848 67.1128 176.975 66.6954 177.018C66.2742 177.059 65.8448 177.008 65.4072 176.863C64.7138 176.633 64.2281 176.279 63.9504 175.801C63.6714 175.326 63.6252 174.782 63.8116 174.169L64.7283 171.398C64.9112 170.846 64.9861 170.383 64.9532 170.01L64.9826 169.921L66.0618 170.278ZM67.51 171.628C67.1874 171.521 66.8538 171.503 66.5093 171.574C66.1648 171.645 65.8835 171.793 65.6654 172.017L65.2567 173.252L66.0633 173.519C67.3242 173.936 68.0767 173.776 68.3209 173.038C68.4277 172.715 68.4036 172.427 68.2486 172.174C68.0937 171.922 67.8475 171.739 67.51 171.628Z" fill="black"/>
<path d="M56.0913 166.902C55.7455 166.729 55.3909 166.682 55.0275 166.762C54.6641 166.843 54.3898 167.033 54.2045 167.333L53.2875 166.875C53.4676 166.558 53.7341 166.305 54.087 166.115C54.4399 165.925 54.833 165.829 55.2663 165.827C55.696 165.824 56.103 165.918 56.4873 166.11C57.2593 166.497 57.7456 167.061 57.9463 167.804C58.1417 168.548 58.0156 169.367 57.5681 170.261L57.4868 170.424C57.2106 170.976 56.8637 171.416 56.4461 171.744C56.0285 172.073 55.5716 172.261 55.0754 172.31C54.5758 172.357 54.0675 172.251 53.5505 171.992C52.9147 171.674 52.4825 171.22 52.2538 170.629C52.0217 170.037 52.0437 169.43 52.32 168.808L53.2369 169.267C53.0813 169.648 53.0707 170.018 53.2051 170.378C53.3343 170.74 53.5822 171.012 53.949 171.196C54.4416 171.442 54.9133 171.455 55.364 171.236C55.8096 171.017 56.2002 170.573 56.5358 169.902L56.6276 169.719C56.9545 169.066 57.0717 168.495 56.9793 168.008C56.8869 167.52 56.5909 167.152 56.0913 166.902Z" fill="black"/>
<path d="M42.7497 167.332L43.6042 166.056L42.621 165.397L43.0874 164.701L44.0707 165.36L46.2592 162.094C46.4005 161.883 46.4633 161.695 46.4474 161.529C46.4293 161.366 46.3149 161.214 46.1039 161.073C46.0001 161.003 45.8443 160.927 45.6364 160.844L46.1257 160.114C46.4061 160.208 46.6582 160.33 46.8821 160.48C47.2845 160.75 47.5064 161.075 47.5478 161.455C47.5891 161.835 47.4598 162.25 47.1597 162.697L44.9712 165.964L45.9301 166.606L45.4637 167.302L44.5048 166.66L43.6502 167.935L42.7497 167.332Z" fill="black"/>
<path d="M26.5498 154.297L25.7726 153.476L30.1604 149.324C30.7533 148.763 31.3864 148.502 32.0595 148.543C32.7299 148.581 33.3457 148.896 33.9068 149.489C34.4895 150.105 34.7857 150.733 34.7957 151.375C34.8056 152.016 34.5269 152.605 33.9594 153.142L33.1862 152.325C33.5408 151.99 33.7262 151.631 33.7422 151.25C33.7555 150.867 33.5877 150.49 33.2387 150.122C32.9191 149.784 32.555 149.612 32.1462 149.607C31.7347 149.598 31.3361 149.773 30.9504 150.133L26.5498 154.297Z" fill="black"/>
<path d="M22.8746 142.234C23.1975 143.185 23.3197 143.956 23.2413 144.548C23.1574 145.139 22.8717 145.604 22.3841 145.943C21.8324 146.327 21.2242 146.424 20.5596 146.234C19.8894 146.043 19.3091 145.595 18.8187 144.889C18.4843 144.408 18.2797 143.915 18.2049 143.411C18.1278 142.903 18.1816 142.433 18.366 142C18.5483 141.564 18.8335 141.211 19.2216 140.941L19.867 141.87C19.4436 142.164 19.2053 142.53 19.152 142.966C19.0955 143.405 19.2378 143.87 19.5789 144.361C19.8954 144.816 20.2439 145.102 20.6244 145.218C20.9994 145.333 21.3649 145.267 21.7209 145.02C22.0064 144.821 22.165 144.533 22.1966 144.154C22.2229 143.774 22.116 143.237 21.8761 142.543C21.6339 141.846 21.4986 141.264 21.47 140.799C21.4361 140.332 21.496 139.929 21.6497 139.589C21.8013 139.246 22.0551 138.951 22.4111 138.703C22.9789 138.309 23.5882 138.213 24.239 138.417C24.8867 138.624 25.468 139.097 25.983 139.838C26.3174 140.319 26.5381 140.832 26.6451 141.376C26.7489 141.922 26.7196 142.421 26.5571 142.872C26.3924 143.319 26.1064 143.684 25.699 143.967L25.0536 143.039C25.477 142.745 25.7041 142.356 25.7348 141.873C25.7601 141.389 25.591 140.886 25.2276 140.363C24.8888 139.876 24.5296 139.571 24.1502 139.45C23.7707 139.328 23.4094 139.387 23.0662 139.625C22.723 139.864 22.5419 140.168 22.5231 140.538C22.5011 140.91 22.6182 141.475 22.8746 142.234Z" fill="black"/>
<path d="M10.9559 115.596L11.7529 118.342L10.9032 118.589L10.1062 115.843L10.9559 115.596Z" fill="black"/>
<path d="M7.43509 87.6015L7.30467 91.1792L11.0698 91.3164L11.0288 92.4407L2.50318 92.1299L2.69571 86.8483L3.62088 86.882L3.46933 91.0394L6.38536 91.1457L6.51578 87.568L7.43509 87.6015Z" fill="black"/>
<path d="M12.0067 76.8588C12.4188 77.363 12.5515 78.0167 12.4046 78.8198C12.2831 79.4845 11.9982 79.9566 11.55 80.236C11.0987 80.5109 10.4942 80.5811 9.73651 80.4465L5.67878 79.7046L5.87375 78.6383L9.90266 79.3749C10.8479 79.5478 11.3908 79.2499 11.5313 78.4814C11.6803 77.6668 11.4758 77.0695 10.9178 76.6895L6.38172 75.8601L6.57668 74.7938L12.8131 75.9341L12.6277 76.9485L12.0067 76.8588Z" fill="black"/>
<path d="M14.9002 68.1452L14.5786 69.1804L5.98374 66.5105L6.30531 65.4753L14.9002 68.1452Z" fill="black"/>
<path d="M17.6427 60.7562L17.2231 61.7557L8.92471 58.272L9.3443 57.2725L17.6427 60.7562Z" fill="black"/>
<path d="M22.93 43.5188C22.1436 44.1428 21.4584 44.5175 20.8745 44.643C20.2896 44.7629 19.7556 44.6504 19.2724 44.3054C18.7256 43.9149 18.4297 43.3748 18.3846 42.6851C18.3386 41.9899 18.5653 41.2926 19.0647 40.5932C19.4052 40.1163 19.8005 39.7578 20.2504 39.5175C20.7027 39.274 21.1636 39.1663 21.6331 39.1944C22.1049 39.2193 22.5331 39.3691 22.9178 39.6438L22.2606 40.5641C21.841 40.2644 21.4166 40.163 20.9875 40.2598C20.5553 40.3543 20.1655 40.6448 19.8182 41.1312C19.4958 41.5826 19.344 42.007 19.3627 42.4043C19.3804 42.7962 19.5658 43.1181 19.9186 43.3701C20.2016 43.5721 20.5267 43.6243 20.894 43.5266C21.2605 43.4234 21.7302 43.142 22.3032 42.6824C22.8785 42.2196 23.3804 41.8964 23.809 41.7129C24.2368 41.524 24.6366 41.4447 25.0085 41.475C25.3827 41.5022 25.7462 41.6418 26.0991 41.8937C26.6617 42.2955 26.9565 42.8372 26.9834 43.5188C27.0071 44.1981 26.7568 44.905 26.2325 45.6393C25.892 46.1162 25.4836 46.4965 25.0073 46.7804C24.5278 47.062 24.0485 47.2022 23.5694 47.2009C23.0926 47.1964 22.6524 47.05 22.2486 46.7618L22.9058 45.8414C23.3254 46.1411 23.7677 46.2241 24.2327 46.0905C24.6968 45.9515 25.1138 45.6229 25.4838 45.1047C25.8288 44.6215 25.9947 44.1808 25.9815 43.7826C25.9683 43.3843 25.7916 43.0638 25.4514 42.8209C25.1113 42.578 24.7639 42.5099 24.4093 42.6167C24.0515 42.7212 23.5584 43.0219 22.93 43.5188Z" fill="black"/>
<path d="M27.6278 31.3496L28.7485 32.3988L29.5574 31.5348L30.1691 32.1074L29.3601 32.9714L32.2302 35.6585C32.4156 35.832 32.5914 35.9244 32.7575 35.9355C32.9209 35.9439 33.0893 35.8554 33.2628 35.6701C33.3483 35.5788 33.4486 35.4374 33.5639 35.2456L34.2055 35.8463C34.0677 36.1079 33.9066 36.337 33.7224 36.5338C33.3914 36.8874 33.0348 37.0539 32.6528 37.0333C32.2707 37.0127 31.8829 36.8182 31.4894 36.4498L28.6193 33.7628L27.8304 34.6054L27.2187 34.0327L28.0076 33.1901L26.887 32.1409L27.6278 31.3496Z" fill="black"/>
<path d="M41.6585 29.0686C41.5306 29.0122 41.3495 28.8731 41.115 28.6514C41.061 29.376 40.7648 29.9613 40.2264 30.4075C39.7451 30.8063 39.2375 30.9987 38.7033 30.9847C38.1697 30.9652 37.7297 30.7464 37.3833 30.3283C36.9621 29.82 36.8281 29.2665 36.9813 28.6677C37.135 28.0635 37.5623 27.471 38.2631 26.8903L39.0752 26.2173L38.7574 25.8338C38.5156 25.5421 38.2365 25.3828 37.92 25.3559C37.601 25.326 37.2715 25.4519 36.9316 25.7335C36.6339 25.9802 36.4465 26.2623 36.3696 26.5797C36.2927 26.8971 36.3428 27.1625 36.5197 27.3761L35.6805 28.0715C35.4787 27.8278 35.37 27.5222 35.3545 27.1545C35.3395 26.7814 35.4246 26.4065 35.6097 26.0299C35.7978 25.6508 36.0693 25.3142 36.4242 25.0201C36.9867 24.554 37.5444 24.3303 38.0976 24.3488C38.6482 24.3643 39.1339 24.6138 39.5547 25.0971L41.4165 27.3439C41.7878 27.792 42.1403 28.1011 42.474 28.2711L42.5338 28.3433L41.6585 29.0686ZM39.7463 29.5802C40.008 29.3633 40.2 29.09 40.3225 28.7603C40.4449 28.4305 40.4691 28.1137 40.3949 27.8099L39.5649 26.8084L38.9107 27.3504C37.8881 28.1979 37.6248 28.9208 38.1207 29.5194C38.3376 29.7811 38.5943 29.9133 38.8909 29.9161C39.1874 29.919 39.4726 29.807 39.7463 29.5802Z" fill="black"/>
<path d="M49.8105 22.4085C50.1407 22.2072 50.3682 21.9312 50.493 21.5806C50.6178 21.23 50.602 20.8965 50.4456 20.5801L51.3211 20.0463C51.4936 20.3666 51.5668 20.7268 51.5409 21.127C51.5149 21.5271 51.3877 21.9112 51.1592 22.2793C50.934 22.6454 50.638 22.9402 50.2711 23.1639C49.5341 23.6134 48.7976 23.7261 48.0618 23.5023C47.3272 23.273 46.6997 22.7315 46.1791 21.8777L46.0845 21.7226C45.7632 21.1957 45.5742 20.6681 45.5175 20.1399C45.4608 19.6118 45.5434 19.1245 45.7653 18.6781C45.9906 18.2296 46.35 17.8549 46.8436 17.5539C47.4506 17.1838 48.065 17.0585 48.6869 17.178C49.3121 17.2955 49.815 17.6362 50.1955 18.2003L49.32 18.7341C49.0798 18.4002 48.7715 18.1947 48.3952 18.1176C48.0201 18.0352 47.6574 18.1008 47.3072 18.3143C46.837 18.6011 46.5755 18.9938 46.5228 19.4926C46.4714 19.9861 46.6409 20.553 47.0313 21.1933L47.1381 21.3684C47.5184 21.9921 47.9396 22.3941 48.4018 22.5743C48.864 22.7546 49.3336 22.6993 49.8105 22.4085Z" fill="black"/>
<path d="M58.8444 15.2418L58.4973 16.1606L59.3708 18.2086L58.3737 18.6339L54.8429 10.3554L55.84 9.93013L57.9755 14.9371L58.2355 14.0682L59.2335 11.3748L60.4462 10.8576L59.2161 14.2615L63.1975 16.5765L62.0279 17.0754L58.8444 15.2418Z" fill="black"/>
<path d="M77.2293 12.4885L75.9 4.06142L78.2788 3.68621C79.0119 3.57057 79.6857 3.63038 80.3002 3.86564C80.9147 4.1009 81.4215 4.49352 81.8207 5.04352C82.2237 5.5929 82.4883 6.25507 82.6145 7.03003L82.6994 7.5683C82.8248 8.36316 82.7803 9.08397 82.5659 9.73074C82.3554 10.3769 81.9899 10.9051 81.4694 11.3155C80.9527 11.7252 80.3168 11.9936 79.5617 12.1206L77.2293 12.4885ZM77.1555 4.80061L78.1972 11.4045L79.3663 11.2201C80.2229 11.085 80.8465 10.7138 81.2371 10.1064C81.6316 9.49847 81.7512 8.70253 81.596 7.7186L81.5184 7.22664C81.3675 6.26972 81.0246 5.56256 80.4898 5.10514C79.9582 4.64326 79.2789 4.47359 78.452 4.59612L77.1555 4.80061Z" fill="black"/>
<path d="M92.4214 11.1383C91.5621 11.1435 90.8612 10.8665 90.3187 10.3072C89.7763 9.74408 89.5022 8.98985 89.4965 8.04456L89.4953 7.84534C89.4915 7.21645 89.6073 6.65519 89.8426 6.16158C90.0818 5.66404 90.4154 5.27531 90.8434 4.99538C91.2753 4.71153 91.7432 4.56809 92.2471 4.56505C93.0713 4.56009 93.7136 4.82772 94.1739 5.36793C94.6342 5.90814 94.8673 6.68409 94.8734 7.69579L94.8761 8.14696L90.5813 8.1728C90.6007 8.79769 90.7854 9.30245 91.1353 9.68707C91.4892 10.0678 91.9357 10.2565 92.4747 10.2532C92.8575 10.2509 93.1813 10.1709 93.4459 10.013C93.7106 9.85517 93.9418 9.64675 94.1395 9.38774L94.8047 9.89937C94.2783 10.719 93.4839 11.1319 92.4214 11.1383ZM92.2525 5.45566C91.815 5.45829 91.4488 5.62066 91.1538 5.94275C90.8589 6.26094 90.678 6.70735 90.6111 7.28198L93.7868 7.26287L93.7863 7.18084C93.7518 6.63026 93.6008 6.20538 93.3333 5.9062C93.0659 5.60311 92.7056 5.45294 92.2525 5.45566Z" fill="black"/>
<path d="M103.879 10.2664L106.078 5.64717L107.176 5.79334L104.086 11.7776L103.267 11.6686L101.827 5.08106L102.924 5.22722L103.879 10.2664Z" fill="black"/>
<path d="M114.789 14.1031C113.961 13.8732 113.362 13.4152 112.993 12.729C112.626 12.0391 112.568 11.2387 112.821 10.3278L112.874 10.1358C113.042 9.52984 113.307 9.02158 113.668 8.61106C114.034 8.19782 114.462 7.91505 114.95 7.76274C115.443 7.60771 115.932 7.59759 116.418 7.73237C117.212 7.95283 117.756 8.38577 118.052 9.0312C118.347 9.67663 118.359 10.4868 118.088 11.4616L117.968 11.8964L113.829 10.7476C113.677 11.354 113.717 11.89 113.948 12.3556C114.185 12.8185 114.563 13.1221 115.082 13.2662C115.451 13.3686 115.784 13.3801 116.082 13.3006C116.38 13.2211 116.659 13.0837 116.92 12.8886L117.42 13.5625C116.69 14.2071 115.813 14.3873 114.789 14.1031ZM116.179 8.59054C115.758 8.47353 115.361 8.52963 114.989 8.75887C114.619 8.98434 114.323 9.36432 114.101 9.89881L117.161 10.7482L117.183 10.6692C117.301 10.1301 117.271 9.68016 117.096 9.31929C116.922 8.95466 116.616 8.71174 116.179 8.59054Z" fill="black"/>
<path d="M124.643 17.3936L123.641 16.9803L127.072 8.65997L128.074 9.07321L124.643 17.3936Z" fill="black"/>
<path d="M132.039 17.2319C132.343 16.6903 132.722 16.2624 133.176 15.9484C133.634 15.6362 134.117 15.4687 134.627 15.4459C135.141 15.425 135.641 15.5512 136.128 15.8246C136.881 16.2472 137.343 16.849 137.514 17.6302C137.688 18.4133 137.532 19.2375 137.046 20.1027L137.009 20.1691C136.707 20.7073 136.332 21.1327 135.883 21.4453C135.44 21.7564 134.958 21.9231 134.44 21.9455C133.924 21.9699 133.418 21.8424 132.921 21.5633C132.171 21.1427 131.71 20.5408 131.535 19.7577C131.365 18.9765 131.52 18.1567 132.002 17.2983L132.039 17.2319ZM132.927 17.8777C132.582 18.4909 132.447 19.0624 132.522 19.5924C132.6 20.1243 132.877 20.5241 133.354 20.7918C133.834 21.0613 134.321 21.0881 134.814 20.8721C135.309 20.6527 135.746 20.204 136.127 19.5262C136.467 18.9198 136.598 18.3481 136.519 17.8108C136.445 17.2721 136.169 16.8689 135.692 16.6013C135.226 16.3394 134.745 16.3137 134.251 16.5244C133.756 16.7351 133.315 17.1862 132.927 17.8777Z" fill="black"/>
<path d="M146.917 27.1865C146.329 27.9511 145.68 28.4326 144.97 28.6309C144.261 28.8291 143.607 28.6984 143.01 28.2386C142.4 27.7693 142.069 27.2066 142.017 26.5504L140.155 28.9698L139.296 28.3087L144.649 21.3525L145.434 21.9564L145.047 22.5458C145.73 22.3816 146.383 22.5389 147.005 23.0177C147.609 23.4822 147.911 24.0766 147.91 24.8009C147.913 25.5275 147.602 26.2964 146.978 27.1075L146.917 27.1865ZM146.133 26.4279C146.569 25.8613 146.793 25.3211 146.804 24.8071C146.815 24.2932 146.61 23.8742 146.189 23.5502C145.669 23.15 145.101 23.0805 144.486 23.3416L142.639 25.7424C142.543 26.3983 142.76 26.93 143.289 27.3373C143.701 27.6541 144.153 27.7429 144.644 27.6037C145.142 27.4637 145.638 27.0718 146.133 26.4279Z" fill="black"/>
<path d="M151.609 35.9207C151.01 35.3041 150.725 34.6065 150.753 33.8279C150.784 33.0466 151.139 32.3267 151.817 31.6683L151.96 31.5295C152.411 31.0915 152.897 30.7866 153.416 30.6147C153.94 30.443 154.452 30.4147 154.95 30.5298C155.454 30.6451 155.881 30.8835 156.232 31.245C156.806 31.8365 157.058 32.4852 156.987 33.1913C156.915 33.8975 156.517 34.6029 155.791 35.3075L155.467 35.6218L152.475 32.54C152.038 32.9865 151.801 33.4692 151.766 33.988C151.736 34.5069 151.909 34.9597 152.285 35.3465C152.551 35.6212 152.833 35.7995 153.13 35.8812C153.427 35.963 153.738 35.9856 154.061 35.9489L154.153 36.7832C153.197 36.9706 152.349 36.6831 151.609 35.9207ZM155.593 31.8654C155.289 31.5514 154.918 31.3995 154.481 31.4096C154.047 31.4169 153.6 31.5954 153.139 31.9449L155.351 34.2236L155.41 34.1665C155.783 33.7605 155.985 33.3574 156.016 32.9573C156.05 32.5545 155.909 32.1905 155.593 31.8654Z" fill="black"/>
<path d="M163.878 42.0445C163.802 41.8965 163.707 41.7456 163.593 41.5918C163.169 41.0208 162.639 40.8136 162.001 40.9704L158.387 43.6511L157.741 42.7804L162.833 39.0037L163.462 39.8509L162.884 40.3013C163.55 40.2494 164.078 40.4854 164.467 41.0094C164.592 41.1788 164.666 41.3237 164.687 41.4442L163.878 42.0445Z" fill="black"/>
<path d="M173.765 66.2621L172.835 63.5582L173.671 63.2704L174.601 65.9743L173.765 66.2621Z" fill="black"/>
<path d="M183.221 86.6325L177.451 87.2267C176.65 87.3053 175.969 87.1201 175.409 86.6713C174.849 86.2263 174.493 85.5796 174.343 84.7312L174.301 84.4351C174.205 83.5065 174.38 82.7404 174.824 82.137C175.268 81.5336 175.929 81.1828 176.807 81.0846L182.589 80.4892L182.703 81.5966L176.956 82.1884C176.342 82.2517 175.881 82.4699 175.574 82.8432C175.271 83.2161 175.151 83.7153 175.216 84.3409C175.281 84.9743 175.5 85.4406 175.872 85.74C176.245 86.0432 176.739 86.1632 177.353 86.1L183.105 85.5075L183.221 86.6325Z" fill="black"/>
<path d="M180.007 97.3783L183.161 99.5962L183.09 100.918L179.011 97.9995L174.568 100.524L174.64 99.1899L178.076 97.2743L174.866 94.9889L174.937 93.6608L179.083 96.6538L183.453 94.1841L183.382 95.5005L180.007 97.3783Z" fill="black"/>
<path d="M171.949 114.76L180.083 117.334L179.356 119.63C179.132 120.338 178.778 120.914 178.293 121.358C177.808 121.803 177.23 122.081 176.56 122.193C175.888 122.308 175.178 122.249 174.428 122.016L173.908 121.851C173.141 121.608 172.516 121.247 172.033 120.766C171.549 120.289 171.24 119.726 171.105 119.077C170.969 118.432 171.013 117.743 171.237 117.011L171.949 114.76ZM178.861 118.127L172.487 116.11L172.13 117.238C171.868 118.065 171.922 118.789 172.291 119.409C172.658 120.034 173.317 120.496 174.267 120.797L174.742 120.947C175.665 121.24 176.451 121.249 177.099 120.974C177.75 120.705 178.205 120.173 178.465 119.378L178.861 118.127Z" fill="black"/>
<path d="M166.372 128.955C166.751 128.184 167.312 127.681 168.055 127.445C168.801 127.211 169.598 127.303 170.447 127.72L170.625 127.808C171.19 128.086 171.64 128.44 171.977 128.871C172.315 129.307 172.514 129.779 172.573 130.287C172.634 130.8 172.554 131.283 172.331 131.735C171.968 132.475 171.441 132.93 170.752 133.1C170.064 133.271 169.265 133.133 168.357 132.687L167.952 132.488L169.847 128.633C169.28 128.372 168.746 128.311 168.245 128.453C167.746 128.599 167.378 128.915 167.14 129.398C166.971 129.742 166.899 130.067 166.922 130.375C166.945 130.682 167.028 130.982 167.171 131.274L166.416 131.641C165.918 130.804 165.903 129.909 166.372 128.955ZM171.532 131.342C171.725 130.95 171.743 130.549 171.587 130.142C171.434 129.736 171.115 129.374 170.631 129.058L169.23 131.908L169.304 131.944C169.812 132.159 170.259 132.214 170.646 132.108C171.037 132.004 171.332 131.749 171.532 131.342Z" fill="black"/>
<path d="M161.305 141.037C161.546 141.203 161.796 141.239 162.054 141.146C162.313 141.058 162.647 140.821 163.055 140.433C163.461 140.048 163.824 139.769 164.142 139.594C164.459 139.423 164.755 139.337 165.03 139.336C165.303 139.339 165.568 139.428 165.826 139.605C166.254 139.899 166.493 140.328 166.542 140.892C166.588 141.46 166.418 142.025 166.031 142.589C165.625 143.181 165.143 143.556 164.585 143.714C164.024 143.874 163.506 143.791 163.029 143.464L163.646 142.565C163.891 142.733 164.174 142.773 164.494 142.685C164.813 142.601 165.081 142.4 165.297 142.085C165.52 141.76 165.624 141.456 165.608 141.176C165.593 140.895 165.47 140.676 165.242 140.519C165.026 140.371 164.805 140.345 164.578 140.44C164.351 140.536 164.036 140.772 163.631 141.148C163.224 141.527 162.856 141.807 162.527 141.989C162.199 142.171 161.891 142.261 161.604 142.258C161.318 142.261 161.035 142.166 160.754 141.974C160.287 141.653 160.04 141.209 160.013 140.641C159.989 140.075 160.182 139.494 160.591 138.898C160.878 138.479 161.206 138.16 161.575 137.939C161.945 137.719 162.324 137.608 162.714 137.605C163.105 137.608 163.456 137.716 163.765 137.928L163.152 138.822C162.841 138.632 162.521 138.588 162.191 138.689C161.863 138.795 161.572 139.032 161.32 139.399C161.088 139.737 160.97 140.054 160.966 140.35C160.963 140.651 161.076 140.88 161.305 141.037Z" fill="black"/>
<path d="M154.111 147.397L154.827 146.583L159.586 150.772L158.87 151.585L154.111 147.397ZM160.906 151.817C161.038 151.933 161.115 152.071 161.136 152.23C161.155 152.392 161.094 152.552 160.955 152.71C160.816 152.869 160.664 152.949 160.501 152.951C160.338 152.953 160.191 152.896 160.059 152.78C159.927 152.664 159.853 152.526 159.837 152.366C159.821 152.207 159.883 152.048 160.023 151.89C160.162 151.731 160.312 151.65 160.472 151.645C160.63 151.643 160.774 151.701 160.906 151.817Z" fill="black"/>
<path d="M151.837 154.46C152.495 155.197 152.847 155.935 152.894 156.674C152.943 157.415 152.687 158.037 152.124 158.539C151.547 159.054 150.915 159.252 150.227 159.133L150.656 159.692L149.917 160.352L145.797 155.736C145.251 155.124 145.002 154.479 145.052 153.801C145.098 153.126 145.428 152.515 146.04 151.969C146.381 151.665 146.779 151.44 147.236 151.294C147.692 151.149 148.12 151.126 148.518 151.226L148.531 152.086C147.802 151.967 147.187 152.131 146.686 152.578C146.292 152.93 146.085 153.314 146.064 153.73C146.041 154.149 146.208 154.56 146.567 154.962L146.93 155.369C146.92 154.707 147.196 154.126 147.755 153.627C148.309 153.133 148.956 152.955 149.698 153.094C150.437 153.235 151.15 153.691 151.837 154.46ZM150.942 155.094C150.466 154.561 149.982 154.239 149.49 154.128C149.001 154.02 148.56 154.141 148.167 154.493C147.657 154.948 147.489 155.514 147.664 156.19L149.591 158.35C150.242 158.58 150.815 158.475 151.311 158.032C151.704 157.681 151.875 157.254 151.823 156.75C151.772 156.246 151.478 155.694 150.942 155.094Z" fill="black"/>
<path d="M143.017 165.6L142.548 164.955C142.48 165.73 142.12 166.333 141.468 166.764C140.351 167.503 139.37 167.246 138.527 165.991L136.215 162.497L137.12 161.899L139.434 165.398C139.689 165.777 139.964 166.001 140.257 166.069C140.547 166.14 140.873 166.055 141.235 165.816C141.528 165.622 141.734 165.374 141.852 165.071C141.97 164.768 142.007 164.448 141.962 164.112L139.47 160.344L140.374 159.746L143.872 165.034L143.017 165.6Z" fill="black"/>
<path d="M127.833 166.888C128.611 166.522 129.363 166.479 130.09 166.758C130.819 167.041 131.385 167.61 131.788 168.465L131.873 168.646C132.14 169.215 132.271 169.773 132.265 170.319C132.257 170.871 132.118 171.364 131.848 171.798C131.575 172.237 131.211 172.564 130.755 172.779C130.009 173.13 129.314 173.157 128.669 172.86C128.024 172.564 127.487 171.958 127.056 171.042L126.864 170.634L130.75 168.805C130.469 168.246 130.09 167.866 129.61 167.664C129.129 167.467 128.645 167.484 128.157 167.714C127.811 167.877 127.551 168.085 127.377 168.34C127.203 168.594 127.081 168.881 127.01 169.199L126.192 169.014C126.325 168.049 126.872 167.341 127.833 166.888ZM130.376 171.973C130.771 171.787 131.035 171.485 131.168 171.069C131.302 170.657 131.278 170.175 131.097 169.626L128.224 170.978L128.259 171.053C128.521 171.538 128.837 171.86 129.205 172.019C129.576 172.181 129.966 172.166 130.376 171.973Z" fill="black"/>
<path d="M118.058 176.504C118.223 176.481 118.397 176.44 118.579 176.382C119.257 176.167 119.625 175.732 119.683 175.078L118.321 170.79L119.354 170.461L121.274 176.504L120.268 176.823L120.03 176.13C119.863 176.778 119.468 177.2 118.846 177.398C118.645 177.462 118.484 177.484 118.364 177.465L118.058 176.504Z" fill="black"/>
<path d="M100.126 177.699L102.972 177.422L103.057 178.303L100.211 178.579L100.126 177.699Z" fill="black"/>
</svg>
